<svg xmlns="http://www.w3.org/2000/svg" viewBox="0 0 224 224"><defs>

	<style type="text/css">.cls-1{fill:#fff;stroke:#ccc;stroke-miterlimit:10;stroke-width:8px;}
	
	.st0{fill:#FFFFFF;stroke:#CCCCCC;stroke-width:8;stroke-miterlimit:10;}
	.st1{fill:none;stroke:#CCCCCC;stroke-width:8;stroke-miterlimit:10;}
	#details {
	display: block;
	}
	@media screen and (max-width: 150px) {
	#details {
	display:none;
	}

	}
</style>

</defs><title>Asset 1frame</title><g id="Layer_2" data-name="Layer 2"><g id="search_icon"><g id="search_icon-2" data-name="search_icon"><circle class="cls-1" cx="112" cy="112" r="108"/><circle class="cls-1" cx="112" cy="112" r="108"/><circle class="cls-1" cx="76.35" cy="79.48" r="34.68" transform="translate(-33.84 77.26) rotate(-45)"/><path class="cls-1" d="M172.45,161.66a10,10,0,0,1-.06,14.08h0a10,10,0,0,1-14.08.06L95.58,113.07c-4.24-4.24,3.31-3.31,7.18-7.18h0c3.87-3.87,2.72-11.2,7-7Z"/></g><g id="details"><path class="cls-1" d="M60.82,95a22,22,0,0,1,0-31"/><path class="cls-1" d="M109.72,127.22,95.58,113.07c-4.24-4.24,3.31-3.31,7.18-7.18h0c3.87-3.87,2.72-11.2,7-7l14.14,14.14Z"/></g></g></g></svg>